<svg xmlns="http://www.w3.org/2000/svg" viewBox="0 0 222 222" id="sad-heart"><path fill="#ffece9" d="m49.67 189.46 18.06 7.68c-1.54-.3-3.06-.68-4.55-1.12a45.135 45.135 0 0 1-13.51-6.56ZM31.69 161.7 103.8 194a77.615 77.615 0 0 1-24.94 4.27l-37.74-16.9a50.201 50.201 0 0 1-9.43-19.67ZM29.8 142.73l96.13 40.9a113.501 113.501 0 0 1-16.4 8.26l-78.56-33.42a73.12 73.12 0 0 1-1.17-15.74ZM32.2 124.63l110.45 46.99a136.53 136.53 0 0 1-13.85 10.22l-98.7-44.22a94.983 94.983 0 0 1 2.1-12.99ZM37.8 106.96l117.37 52.84q-4.935 5.235-10.23 9.87l-111.5-49.95a119.603 119.603 0 0 1 4.36-12.76ZM44.98 92.02l122.94 52.3a147.995 147.995 0 0 1-9.76 12.22l-119.4-51.86a135.587 135.587 0 0 1 6.22-12.66ZM55.32 75.98l121.47 54.42c-.04.08-.09.15-.13.23q-3.45 6.12-7.42 11.83L47.38 87.87a142.912 142.912 0 0 1 7.94-11.89ZM66.26 62.81l118.63 50.47a133.586 133.586 0 0 1-5.76 12.77L56.8 74.01a146.387 146.387 0 0 1 9.46-11.2ZM80.24 49.63l109.8 46.71a112.742 112.742 0 0 1-4.3 14.7L69.83 59.11q5.04-5.055 10.41-9.48ZM188.15 53.37 124.27 26.2c12.11-3.13 23.95-3.39 34.55-.22 14.29 4.27 24.19 14.14 29.33 27.39ZM192.19 74.22l-91.07-38.74a104.49 104.49 0 0 1 18.99-8.1l69.77 31.26a66.213 66.213 0 0 1 2.31 15.58ZM192.21 79.1a91.017 91.017 0 0 1-1.65 14.69L84.48 46.27a131.188 131.188 0 0 1 13.85-9.23Z"></path><path fill="#f49d1a" d="M118.541 160.678h13.765l.01.053a10.746 10.746 0 0 0 5.272 7.298c5.362 2.99 14.512 7.488 21.755 7.966h-42.94v-13.178a2.139 2.139 0 0 1 2.138-2.14Z"></path><path fill="#f9bc40" d="m139.999 160.678 8.653 4.687h7.54a10.63 10.63 0 0 1 10.63 10.63h-50.42v-13.178a2.139 2.139 0 0 1 2.14-2.14Z"></path><path fill="#fdd39d" d="M119.803 116.145h18.91v39.84h-18.91z"></path><path fill="#5ba6e2" d="M119.849 153.784h18.81a1.34 1.34 0 0 1 1.34 1.34v5.554h-21.49v-5.554a1.34 1.34 0 0 1 1.34-1.34ZM164.728 179.244h-46.664a2 2 0 0 1-2-2v-1.25h50.664v1.25a2 2 0 0 1-2 2Z"></path><path fill="#e42e21" d="M148.652 165.365h7.54a10.63 10.63 0 0 1 10.63 10.63h-18.17Z"></path><path fill="#e42e21" d="M148.652 165.365h7.54a10.63 10.63 0 0 1 10.63 10.63h-18.17Z"></path><path fill="#4481d1" d="M130.089 179.244h-12.025a2 2 0 0 1-2-2v-1.25h15.88a22.757 22.757 0 0 1-1.855 3.25Z"></path><path fill="#4481d1" d="M161.7 179.244h-43.636a2 2 0 0 1-2-2v-1.25h43.28a16.94 16.94 0 0 0 2.457 0 8.014 8.014 0 0 1-.1 3.25Z"></path><path fill="#c71b21" d="M159.343 175.995h-10.691v-2.69a37.905 37.905 0 0 0 10.691 2.69Z"></path><path fill="#fff" d="M164.45 173.405a.75.75 0 0 1-.65-.374c-.027-.048-2.819-4.774-6.827-5.06a.75.75 0 0 1-.695-.8.767.767 0 0 1 .802-.695c4.806.341 7.89 5.58 8.02 5.803a.75.75 0 0 1-.65 1.126Z"></path><path fill="#4481d1" d="M116.064 177.244v-1.25h46.4a7.428 7.428 0 0 1-.159 3.25h-44.241a2 2 0 0 1-2-2Z"></path><path fill="#f49d1a" d="M118.541 160.678h6.03a7.455 7.455 0 0 0 .139 4.448 10.067 10.067 0 0 0 3.546 4.613c7.926 6.027 19.168-2.435 29.897 3.436a18.22 18.22 0 0 1 3.841 2.82h-45.592v-13.178a2.139 2.139 0 0 1 2.14-2.14Z"></path><path fill="#c71b21" d="M158.153 173.175a18.22 18.22 0 0 1 3.841 2.82h-13.342v-5.01a18.948 18.948 0 0 1 9.501 2.19Z"></path><path fill="#e9b77a" d="M126.936 140.197c-1.216 4.297 1.044 5.43-.077 12.154a30.31 30.31 0 0 1-.847 3.634h-6.21v-37.971a19.696 19.696 0 0 1 3.383-1.869h15.528v12.646c-8.244 3.914-10.877 8.228-11.777 11.406Z"></path><path fill="#4481d1" d="M118.839 154.269c.019-.023.029-.052.05-.073a1.345 1.345 0 0 1 .913-.403c.016 0 .03-.01.047-.01h6.73c-.642 2.93-1.557 4.995-2.009 6.895h-6.061v-5.554a1.333 1.333 0 0 1 .103-.513 1.318 1.318 0 0 1 .227-.342Z"></path><path fill="#f49d1a" d="M110.376 160.678H96.611l-.01.053a10.746 10.746 0 0 1-5.271 7.298c-5.363 2.99-14.513 7.488-21.756 7.966h42.94v-13.178a2.139 2.139 0 0 0-2.138-2.14Z"></path><path fill="#f9bc40" d="m88.919 160.678-8.654 4.687h-7.54a10.63 10.63 0 0 0-10.63 10.63h50.42v-13.178a2.139 2.139 0 0 0-2.139-2.14Z"></path><path fill="#fdd39d" d="M90.204 116.145h18.91v39.84h-18.91z"></path><path fill="#5ba6e2" d="M110.409 160.678h-21.49v-5.554a1.34 1.34 0 0 1 1.34-1.34h18.81a1.34 1.34 0 0 1 1.34 1.34v5.554ZM62.19 175.995h50.664v1.25a2 2 0 0 1-2 2H64.189a2 2 0 0 1-2-2v-1.25Z"></path><path fill="#e42e21" d="M80.265 165.365h-7.54a10.63 10.63 0 0 0-10.63 10.63h18.17Z"></path><path fill="#e42e21" d="M80.265 165.365h-7.54a10.63 10.63 0 0 0-10.63 10.63h18.17Z"></path><path fill="#4481d1" d="M98.828 179.244h12.026a2 2 0 0 0 2-2v-1.25h-15.88a22.757 22.757 0 0 0 1.854 3.25Z"></path><path fill="#4481d1" d="M67.216 179.244h43.638a2 2 0 0 0 2-2v-1.25h-43.28a16.94 16.94 0 0 1-2.457 0 8.014 8.014 0 0 0 .1 3.25Z"></path><path fill="#c71b21" d="M69.574 175.995h10.691v-2.69a37.905 37.905 0 0 1-10.69 2.69Z"></path><path fill="#fff" d="M64.467 173.405a.75.75 0 0 1-.65-1.126c.13-.222 3.214-5.462 8.02-5.803a.758.758 0 0 1 .802.695.75.75 0 0 1-.695.8c-4.022.287-6.8 5.012-6.827 5.06a.75.75 0 0 1-.65.374Z"></path><path fill="#4481d1" d="M112.854 177.244v-1.25h-46.4a7.428 7.428 0 0 0 .158 3.25h44.242a2 2 0 0 0 2-2Z"></path><path fill="#f49d1a" d="M110.376 160.678h-6.029a7.455 7.455 0 0 1-.14 4.448 10.067 10.067 0 0 1-3.546 4.613c-7.926 6.027-19.167-2.435-29.897 3.436a18.22 18.22 0 0 0-3.841 2.82h45.592v-13.178a2.139 2.139 0 0 0-2.139-2.14Z"></path><path fill="#c71b21" d="M70.764 173.175a18.22 18.22 0 0 0-3.841 2.82h13.342v-5.01a18.948 18.948 0 0 0-9.501 2.19Z"></path><path fill="#e9b77a" d="M101.98 140.197c1.217 4.297-1.043 5.43.078 12.154a30.31 30.31 0 0 0 .847 3.634h6.21v-37.971a19.696 19.696 0 0 0-3.383-1.869H90.204v12.646c8.245 3.914 10.877 8.228 11.777 11.406Z"></path><path fill="#4481d1" d="M110.078 154.269c-.019-.023-.029-.052-.049-.073a1.345 1.345 0 0 0-.913-.403c-.017 0-.03-.01-.047-.01h-6.73c.642 2.93 1.557 4.995 2.008 6.895h6.062v-5.554a1.333 1.333 0 0 0-.104-.513 1.318 1.318 0 0 0-.227-.342Z"></path><path fill="#f73a5a" d="M113.939 137.643c10.376-5.328 20.62-10.67 26.143-14.996 10.623-8.32 16.607-13.006 20.517-21.84 1.519-3.434 5.69-13.25 2.316-24.82-.887-3.043-3.735-12.808-13.568-18.2-9.825-5.389-19.67-2.598-22.502-1.655a29.977 29.977 0 0 0-12.906 8.604 29.977 29.977 0 0 0-12.906-8.604c-2.831-.943-12.677-3.734-22.503 1.655-9.833 5.392-12.68 15.157-13.567 18.2-3.374 11.57.797 21.386 2.316 24.82 3.91 8.834 9.894 13.52 20.517 21.84 5.524 4.326 15.767 9.668 26.143 14.996Z"></path><path fill="#db2d4e" d="M162.915 75.987a33.035 33.035 0 0 0-5.749-11.581c2.221 10.53-1.486 19.266-2.901 22.463-3.91 8.834-9.894 13.52-20.517 21.84q-.415.325-.864.657a42.654 42.654 0 0 1-50.558 0q-.449-.332-.864-.657c-7.7-6.03-12.954-10.157-16.756-15.333a43.098 43.098 0 0 0 2.573 7.43c3.91 8.835 9.894 13.521 20.517 21.84 5.524 4.327 15.767 9.669 26.143 14.997 10.375-5.328 20.62-10.67 26.143-14.996 10.623-8.32 16.606-13.006 20.517-21.84 1.519-3.434 5.69-13.25 2.316-24.82Z"></path><path fill="#f95f81" d="M68.782 74.287a10.877 10.877 0 0 0-3.482.578 66.37 66.37 0 0 0-.337 1.122 34.049 34.049 0 0 0 .328 19.537 10.906 10.906 0 1 0 3.491-21.237ZM162.427 96.045a34.211 34.211 0 0 0 .488-20.058 54.14 54.14 0 0 0-.502-1.638 10.908 10.908 0 0 0 .014 21.696Z"></path><path fill="#d65476" d="M164.176 83.992q-.022-.703-.076-1.422c-.011-.15-.02-.299-.034-.45a31.966 31.966 0 0 0-.21-1.809c-.015-.101-.036-.204-.051-.305q-.123-.786-.291-1.588c-.036-.17-.071-.34-.11-.51a32.06 32.06 0 0 0-.489-1.92l-.005-.018a54.715 54.715 0 0 0-.478-1.56l-.02-.06a10.837 10.837 0 0 0-4.94 1.81 41.061 41.061 0 0 1-3.207 10.708c-.307.693-.63 1.352-.964 1.997a10.91 10.91 0 0 0 9.126 7.18v-.002c.06-.188.12-.386.178-.582a38.247 38.247 0 0 0 .614-2.27c.038-.16.073-.325.11-.488q.107-.48.205-.979l.099-.524q.105-.583.194-1.19l.044-.28c.067-.49.123-.993.17-1.504.016-.157.028-.316.04-.474q.053-.641.081-1.302c.005-.123.013-.244.018-.368q.026-.825.01-1.677c-.003-.137-.01-.275-.014-.413Z"></path><path fill="#fff" d="M117.49 88.373a14.425 14.425 0 1 1-28.85 0 14.915 14.915 0 0 1 .203-2.438 57.46 57.46 0 0 1 14.962-8.318 23.936 23.936 0 0 0 4.888-2.534 14.427 14.427 0 0 1 8.796 13.29Z"></path><path fill="#fff" d="M140.04 89.938c-1.302 5.892-5.784 10.242-11.09 10.242-6.322 0-11.46-6.178-11.46-13.803 0-5.342 2.533-9.98 6.226-12.262a1.317 1.317 0 0 0 .179.335 204.377 204.377 0 0 0 16.145 15.488Z"></path><path fill="#333" d="M142.825 91.874a6.002 6.002 0 0 1-1.57-.808 33.707 33.707 0 0 1-1.452-1.009q-1.4-1.071-2.753-2.2c-1.81-1.498-3.531-3.09-5.235-4.7-1.687-1.628-3.355-3.275-4.946-5-.793-.865-1.586-1.728-2.353-2.622A4.457 4.457 0 0 1 123.54 74a1.075 1.075 0 0 1 .191-.915 1.629 1.629 0 0 1 .738-.5 1.137 1.137 0 0 0-.673 1.346 4.257 4.257 0 0 0 1.08 1.269c.83.817 1.683 1.618 2.54 2.413l5.09 4.82 5.056 4.852c.836.816 1.69 1.61 2.553 2.396a15.487 15.487 0 0 0 2.711 2.192ZM88.042 115.373a7.082 7.082 0 0 0 1.966-.624 11.375 11.375 0 0 0 1.848-.903c1.162-.735 2.274-1.56 3.386-2.381 2.236-1.63 4.459-3.287 6.767-4.841a61.066 61.066 0 0 1 7.198-4.252 28.638 28.638 0 0 1 3.934-1.522 27.913 27.913 0 0 1 4.108-.976 17.25 17.25 0 0 1 4.263-.089 14.71 14.71 0 0 1 4.085 1.271 39.765 39.765 0 0 1 7.22 4.251 43.097 43.097 0 0 1 6.29 5.5 20.84 20.84 0 0 1 2.498 3.359 7.971 7.971 0 0 1 .862 4.057 8.307 8.307 0 0 0-1.09-3.922 20.474 20.474 0 0 0-2.627-3.157 42.96 42.96 0 0 0-6.376-5.208 44.644 44.644 0 0 0-7.141-4.046 13.87 13.87 0 0 0-3.825-1.155 16.499 16.499 0 0 0-4.018.128 26.972 26.972 0 0 0-3.975.9 27.698 27.698 0 0 0-3.823 1.432 75.427 75.427 0 0 0-7.166 4.07c-2.338 1.463-4.607 3.049-6.904 4.599-1.158.762-2.316 1.529-3.534 2.21a11.386 11.386 0 0 1-1.926.815 7.146 7.146 0 0 1-2.02.484Z"></path><path fill="#333" d="M102.312 114.459a42.89 42.89 0 0 1 6.011-4.115 38.098 38.098 0 0 1 6.65-3.067 18.142 18.142 0 0 1 7.298-1.096 8.715 8.715 0 0 1 3.568 1.092 6.894 6.894 0 0 1 2.502 2.668 7.596 7.596 0 0 0-6.118-2.992 20.626 20.626 0 0 0-6.93 1.275 56.452 56.452 0 0 0-6.61 2.795 65.702 65.702 0 0 0-3.204 1.669c-1.072.558-2.114 1.168-3.167 1.77ZM103.064 103.298A14.942 14.942 0 0 1 88.14 88.373a15.41 15.41 0 0 1 .21-2.52l.03-.186.146-.12a58.21 58.21 0 0 1 15.1-8.397 23.595 23.595 0 0 0 4.787-2.481l.225-.152.251.106a14.93 14.93 0 0 1-5.825 28.675ZM89.306 86.202a14.402 14.402 0 0 0-.166 2.171 13.925 13.925 0 1 0 19.604-12.723 24.66 24.66 0 0 1-4.76 2.434 58.674 58.674 0 0 0-14.678 8.118Z"></path><circle cx="104.427" cy="90.043" r="6.418" fill="#333"></circle><circle cx="106.363" cy="86.064" r="1.936" fill="#fff"></circle><circle cx="108.995" cy="89.233" r=".81" fill="#fff"></circle><path fill="#fff" d="M102.186 94.4a25.207 25.207 0 0 1 2.584-.027c.41.024.813.008 1.229.02.42.008.834-.019 1.323.006a3.356 3.356 0 0 1-2.574.974 4.521 4.521 0 0 1-1.364-.254 3.15 3.15 0 0 1-1.198-.72Z"></path><circle cx="127.062" cy="88.848" r="6.418" fill="#333"></circle><circle cx="128.998" cy="84.868" r="1.936" fill="#fff"></circle><path fill="#fff" d="M124.821 93.204a25.19 25.19 0 0 1 2.585-.026c.41.024.812.008 1.228.02.42.008.834-.019 1.323.006a3.356 3.356 0 0 1-2.573.973 4.521 4.521 0 0 1-1.365-.253 3.15 3.15 0 0 1-1.198-.72Z"></path><path fill="#333" d="M128.95 100.68c-6.595 0-11.96-6.416-11.96-14.303 0-5.361 2.476-10.223 6.463-12.688l.538-.332.2.601a.877.877 0 0 0 .114.206 204.364 204.364 0 0 0 16.053 15.389l.237.194-.066.3c-1.384 6.26-6.146 10.633-11.579 10.633Zm-5.403-25.859c-3.44 2.362-5.558 6.737-5.558 11.556 0 7.335 4.917 13.303 10.961 13.303 4.876 0 9.17-3.912 10.534-9.553a213.154 213.154 0 0 1-15.937-15.306ZM82.234 97.467a10.243 10.243 0 0 1 1.19-5.732 19.472 19.472 0 0 1 3.61-4.715 31.596 31.596 0 0 1 4.621-3.716 54.103 54.103 0 0 1 5.076-3.037 67.1 67.1 0 0 1 5.371-2.456c.911-.381 1.844-.7 2.717-1.08.879-.387 1.743-.81 2.582-1.28a22.05 22.05 0 0 0 4.604-3.472 17.634 17.634 0 0 0 3.5-4.628 19.012 19.012 0 0 1-7.71 8.76 30.936 30.936 0 0 1-5.344 2.54 67.558 67.558 0 0 0-5.259 2.502 44.93 44.93 0 0 0-9.63 6.424 19.106 19.106 0 0 0-3.711 4.394 10.544 10.544 0 0 0-1.617 5.496Z"></path><circle cx="131.745" cy="87.189" r=".81" fill="#fff"></circle><path fill="#fdd39d" d="M153.575 104.215c-.168-1.013 3.233-5.677 3.925-7.277 2.085-4.826-5.527 1.88-5.527 1.88a1.203 1.203 0 0 1-1.804-.515q-1.95-4.546-4.25-8.93a.882.882 0 0 0-1.644.248 7.296 7.296 0 0 0 .059 2.394l.88 5.577s-3.522-6.363-5.665-9.297a1.74 1.74 0 0 0-.77-.695 1.213 1.213 0 0 0-1.412.905 3.52 3.52 0 0 0 .126 1.845l2.522 10.033-4.863-6.473a3.457 3.457 0 0 0-1.417-1.289 1.193 1.193 0 0 0-1.585.655 1.734 1.734 0 0 0 .24 1.095l4.474 9.556-5.498-4.273c-.796-.619-2.058-1.196-2.675-.398-1.389 1.798 7.947 9.143 10.554 13.82 1.044 1.874 2.338 6.699 4.933 12.496a4.692 4.692 0 0 0 4.96 2.694c1.764-.251 10.736-2.354 11.757-6.638.893-3.75-5.938-9.087-7.32-17.413Z"></path><ellipse cx="104.229" cy="63.277" fill="#fff" rx="1.412" ry="1.765" transform="rotate(-64.519 104.229 63.277)"></ellipse><ellipse cx="102.523" cy="127.963" fill="#fff" rx="1.412" ry="1.765" transform="rotate(-57.728 102.523 127.963)"></ellipse><path fill="#fff" d="M73.25 71.276a1 1 0 0 1-.894-1.447c.085-.168 8.62-16.749 26.276-9.477a1 1 0 0 1-.762 1.85c-15.918-6.555-23.414 7.904-23.725 8.523a1.001 1.001 0 0 1-.895.551ZM97.75 125.776a.991.991 0 0 1-.485-.126c-18.05-10.028-24.626-22.123-24.897-22.632a1 1 0 0 1 1.765-.94c.065.12 6.608 12.105 24.104 21.824a1 1 0 0 1-.487 1.874Z"></path><path fill="#fdd39d" d="M74.849 104.215c.168-1.013-3.233-5.677-3.925-7.277-2.085-4.826 5.527 1.88 5.527 1.88a1.203 1.203 0 0 0 1.804-.515q1.95-4.546 4.25-8.93a.882.882 0 0 1 1.644.248 7.296 7.296 0 0 1-.059 2.394l-.88 5.577s3.522-6.363 5.665-9.297a1.74 1.74 0 0 1 .77-.695 1.213 1.213 0 0 1 1.412.905 3.52 3.52 0 0 1-.126 1.845l-2.522 10.033 4.863-6.473a3.457 3.457 0 0 1 1.417-1.289 1.193 1.193 0 0 1 1.585.655 1.734 1.734 0 0 1-.24 1.095l-4.474 9.556 5.498-4.273c.796-.619 2.058-1.196 2.674-.398 1.39 1.798-7.946 9.143-10.553 13.82-1.044 1.874-2.338 6.699-4.933 12.496a4.692 4.692 0 0 1-4.961 2.694c-1.763-.251-10.735-2.354-11.756-6.638-.893-3.75 5.938-9.087 7.32-17.413Z"></path></svg>