<svg xmlns="http://www.w3.org/2000/svg" viewBox="0 0 64 64" id="race-flag"><defs><linearGradient id="a" x1="4" x2="60" y1="31.997" y2="31.997" gradientUnits="userSpaceOnUse"><stop offset="0" stop-color="#9cffac"></stop><stop offset="1" stop-color="#00b59c"></stop></linearGradient></defs><path fill="url(#a)" d="M35.05791,34.30727l5.95261,10.17486a1.08416,1.08416,0,0,1-.3918,1.49087l-2.6008,1.52355a1.09215,1.09215,0,0,1-1.48-.39175l-4.49437-7.672-4.63579,7.857a1.09313,1.09313,0,0,1-1.49093.38086l-2.5899-1.52348a1.10652,1.10652,0,0,1-.39182-1.49086l6.105-10.349-1.1644-1.98058c-.28768-.48791-.80106-1.3956-1.08823-1.88261L10.13754,40.18364l1.81738-6.47488a1.10009,1.10009,0,0,0-.72916-1.33857L4,30.11756,20.8457,20.28l-.555-.94668a1.09044,1.09044,0,0,1,1.88255-1.09918c1.85964,3.16739,7.27284,12.453,9.06494,15.529a1.09417,1.09417,0,0,1,0,1.09912l-5.87637,9.95722.7182.42442,5.0167-8.499a1.1,1.1,0,0,1,1.8935-.01092l.31562.54411,4.55967,7.79172.7182-.42442L33.79556,36.462c-.403-.84469-1.45721-1.89555-.94671-2.68791l1.937-3.27552c.35924-.616,6.94064-11.78234,7.08438-12.02492a1.088,1.088,0,1,1,1.87171,1.10994l-.55494.93593L60,30.43319l-7.23665,2.22a1.08825,1.08825,0,0,0-.72916,1.32767l1.7847,6.48578L37.21257,30.66167C36.67837,31.57038,35.59448,33.40324,35.05791,34.30727ZM23.43568,18.75649l7.35641,12.57994.32645.55494a1.091,1.091,0,0,0,1.88261-.02174l7.60668-12.87369.555-.93586a1.09276,1.09276,0,0,0-1.8826-1.11L32.06529,29.1817,24.77417,16.72152a1.17525,1.17525,0,0,0-.5985-.47884,1.09079,1.09079,0,0,0-1.28405,1.578Z"></path></svg>