<svg xmlns="http://www.w3.org/2000/svg" viewBox="0 0 48 48" id="first-medal"><defs><linearGradient id="a" x1="24" x2="24" y1="31" y2="47" gradientUnits="userSpaceOnUse"><stop offset="0" stop-color="#fe9661"></stop><stop offset="1" stop-color="#ffb369"></stop></linearGradient><linearGradient id="b" x1="24" x2="24" y1="35" y2="1" gradientUnits="userSpaceOnUse"><stop offset="0" stop-color="#54a5ff"></stop><stop offset="1" stop-color="#8ad3fe"></stop></linearGradient></defs><g><polygon fill="url(#a)" points="31 47 24 43 17 47 17 31 31 31 31 47"></polygon><path fill="url(#b)" d="M40.32,20.51c-1.76,3-.23,3.63-1.6,6-1.24,2.16-2.88,1.7-4.39,4.38a4.94,4.94,0,0,1-4.59,2.5C27.19,33.23,26.52,35,24,35s-3.19-1.77-5.74-1.62a4.94,4.94,0,0,1-4.59-2.5,6.65,6.65,0,0,0-2.55-2.55A5,5,0,0,1,9.28,26.5c-1.37-2.36.15-3-1.6-6a5,5,0,0,1,0-5c1.76-3,.23-3.63,1.6-6,1.24-2.16,2.88-1.7,4.39-4.38a4.94,4.94,0,0,1,4.59-2.5C20.81,2.77,21.48,1,24,1s3.19,1.77,5.74,1.62a4.94,4.94,0,0,1,4.59,2.5,6.65,6.65,0,0,0,2.55,2.55A5,5,0,0,1,38.72,9.5c1.37,2.36-.15,3,1.6,6A5,5,0,0,1,40.32,20.51Z"></path><circle cx="24" cy="18" r="11" fill="#f0f7fc"></circle><path fill="#fe9661" d="M24,26a2,2,0,0,1-2-2V15.73a2,2,0,0,1-2.11-3.39l3-2A2,2,0,0,1,26,12V24A2,2,0,0,1,24,26Z"></path></g></svg>