<svg xmlns="http://www.w3.org/2000/svg" viewBox="0 0 110 110" id="desk-lamp"><g><circle cx="51" cy="59" r="50" fill="#e7efff"></circle><circle cx="11" cy="4" r="3" fill="#00c99f"></circle><circle cx="106" cy="18" r="3" fill="#ffa100"></circle><circle cx="99" cy="106" r="3" fill="#00c99f"></circle><circle cx="4" cy="100" r="3" fill="#ff4d69"></circle><path fill="#fff" d="M81,99,50.31,42.46,65.87,26.9,99.38,46.35A49.93,49.93,0,0,1,81,99Z"></path><path fill="#a5bced" d="M99,87v2a2,2,0,0,1-2,2H12.58a49.91,49.91,0,0,1-4.29-6H97A2,2,0,0,1,99,87Z"></path><path fill="#7f96d1" d="M89.42,91a50,50,0,0,1-76.84,0Z"></path><path fill="#8fa2ff" d="M18,80a3,3,0,0,1-3-3V38a3,3,0,0,1,.88-2.12l23-23a3,3,0,1,1,4.24,4.24L21,39.24V77A3,3,0,0,1,18,80Z"></path><path fill="#4e6aff" d="M11,77H41a2,2,0,0,1,2,2v6a0,0,0,0,1,0,0H9a0,0,0,0,1,0,0V79A2,2,0,0,1,11,77Z"></path><circle cx="18" cy="38" r="6" fill="#4e6aff"></circle><circle cx="18" cy="38" r="3" fill="#323fd4"></circle><circle cx="57.38" cy="35.38" r="6" fill="#ffa100"></circle><path fill="#4e6aff" d="M37,9h7a0,0,0,0,1,0,0V25a0,0,0,0,1,0,0H37a3,3,0,0,1-3-3V12a3,3,0,0,1,3-3Z" transform="rotate(45 39 16.995)"></path><path fill="#323fd4" d="M44 46l-3.54-3.53a17 17 0 0124-24L68 22a2 2 0 010 2.83L46.78 46A2 2 0 0144 46zM31 73h4a2 2 0 012 2v2a0 0 0 010 0H29a0 0 0 010 0V75A2 2 0 0131 73z"></path><path fill="#8fa2ff" d="M78.2,72.25,76,75l-2.2-2.75A6,6,0,0,0,69.12,70H51a3,3,0,0,0-3,3v5H68l1.5,1.88a8.33,8.33,0,0,0,13,0L84,78h20V73a3,3,0,0,0-3-3H82.88A6,6,0,0,0,78.2,72.25Z"></path><path fill="#4e6aff" d="M46,78a2,2,0,0,0,2,2H68l.43.71a8.83,8.83,0,0,0,15.14,0L84,80h20a2,2,0,0,0,0-4H83.26a4,4,0,0,0-3.43,1.94L79,79.29a3.54,3.54,0,0,1-6.06,0l-.8-1.35A4,4,0,0,0,68.74,76H48A2,2,0,0,0,46,78Z"></path></g></svg>