<svg xmlns="http://www.w3.org/2000/svg" fill-rule="evenodd" stroke-linejoin="round" stroke-miterlimit="2" clip-rule="evenodd" viewBox="0 0 64 64" id="audiophile-boy"><g transform="translate(-64.688 -71.787) scale(.40381)"><clipPath id="a"><path d="M239.281 221.401c27.34 0 49.502 22.162 49.502 49.501 0 27.34-22.162 49.502-49.502 49.502-27.339 0-49.501-22.162-49.501-49.502 0-27.339 22.162-49.501 49.501-49.501Z"></path></clipPath><g clip-path="url(#a)"><path fill="url(#b)" d="M189.78 221.401h99.002v99.003H189.78z"></path><path fill="#fbd226" d="M249.607 290.597h-20.65c-8.197 0-14.903 6.706-14.903 14.902v14.904h50.456v-14.904c0-8.196-6.706-14.902-14.903-14.902Z"></path><path fill="#f9b71e" d="M249.033 290.596v2.733a9.71 9.71 0 0 1-2.823 6.845l-.042.039a9.724 9.724 0 0 1-6.885 2.866h-.001a9.724 9.724 0 0 1-6.885-2.866l-.66.66.656-.66a9.716 9.716 0 0 1-2.862-6.884v-2.733h-.575c-.434 0-.864.021-1.289.058v2.675a11.58 11.58 0 0 0 3.413 8.201l-.002.002.019.019c2.103 2.094 5 3.392 8.185 3.392h.001c3.195 0 6.099-1.307 8.204-3.411l.047-.05a11.582 11.582 0 0 0 3.364-8.153v-2.675a14.905 14.905 0 0 0-1.291-.058h-.574Z"></path></g><path fill="#f8eabb" d="M239.282 274.839h-.001c-5.876 0-10.683 4.808-10.683 10.684v7.805c0 5.876 4.807 10.683 10.683 10.683h.001c5.876 0 10.683-4.807 10.683-10.683v-7.805c0-5.876-4.807-10.684-10.683-10.684Z"></path><path fill="url(#c)" d="M239.281 304.011h.001c5.876 0 10.683-4.807 10.683-10.681v-7.809c0-5.874-4.807-10.682-10.683-10.682h-.001c-5.876 0-10.683 4.808-10.683 10.682v7.809s8.175 2.731 13.154 1.969c4.978-.76.347 11.623-10.205 5.38a10.655 10.655 0 0 0 7.734 3.332Z"></path><path fill="#fce6c2" d="M232.068 284.737c-1.318.826-2.688 1.355-3.47 2.154v3.681l.016.03s10.527 2.895 21.351-.006v-4.16c-2.132-.531-4.449-.91-5.16-1.135-1.951-.616-10.117-2.208-12.737-.564Z"></path><path fill="#fce6c2" d="M260.708 204.122h-42.853c-10.25 0-18.636 8.386-18.636 18.635v29.233c0 22.035 18.027 40.062 40.062 40.062 22.035 0 40.062-18.027 40.062-40.062v-29.233c0-10.249-8.385-18.635-18.635-18.635Z"></path><path fill="url(#d)" d="M279.343 251.99c0 22.034-18.027 40.062-40.062 40.062-22.035 0-40.062-18.027-40.062-40.062h-.456c-4.691 0-8.529-3.838-8.529-8.53v-.001c0-4.691 3.838-8.529 8.529-8.529h.456l.493-1.087c47.409-11.819 33.579 26.501 33.579 26.501 6.348 4.955 11.855-.116 11.855-.116-9.388-44.722 34.197-24.019 34.197-24.019v-1.279h.456c4.692 0 8.53 3.838 8.53 8.529v.001c0 4.692-3.838 8.53-8.53 8.53h-.456Z"></path><path fill="#fff" d="M246.912 242.784c-2.358 7.861 12.158 7.813 16.873 4.878 4.714-2.935 2.605-8.855 2.605-8.855s-17.121-3.884-19.478 3.977Z"></path><path fill="#00ab4e" d="M257.026 239.038a4.712 4.712 0 0 0-4.714 4.714 4.714 4.714 0 1 0 4.714-4.714Z"></path><path fill="#272f2f" d="M257.026 242.104a1.648 1.648 0 1 0 0 3.296 1.648 1.648 0 0 0 0-3.296Z"></path><path fill="#fff" d="M253.69 239.261a1.647 1.647 0 1 0 0 3.295 1.647 1.647 0 0 0 0-3.295Z"></path><path fill="#ef653f" d="M249.075 239.829c5.477-3.691 17.315-1.022 17.315-1.022-12.235-3.943-17.315 1.022-17.315 1.022Z"></path><path fill="#fff" d="M212.278 238.807s-2.109 5.92 2.606 8.855c4.714 2.935 19.23 2.983 16.872-4.878-2.357-7.861-19.478-3.977-19.478-3.977Z"></path><path fill="#00ab4e" d="M221.911 239.038a4.714 4.714 0 1 0 0 9.428 4.713 4.713 0 0 0 4.714-4.714 4.713 4.713 0 0 0-4.714-4.714Z"></path><path fill="#272f2f" d="M221.911 242.104a1.648 1.648 0 1 0 0 3.296 1.648 1.648 0 0 0 0-3.296Z"></path><path fill="#fff" d="M218.575 239.261a1.648 1.648 0 1 0 0 3.296 1.648 1.648 0 0 0 0-3.296Z"></path><path fill="#ef653f" d="M212.278 238.807s11.838-2.669 17.316 1.022c0 0-5.08-4.965-17.316-1.022Z"></path><path fill="#f7c090" d="m228.615 290.599-.001.003s10.751 6.113 21.351-.006l.007-.004a39.744 39.744 0 0 1-10.691 1.46c-3.69 0-7.267-.508-10.666-1.453zm4.676-30.255s5.507 5.488 11.855-.115c0 0-5.907 2.288-11.855.115zm3.482 34.794s1.991 2.494 4.878.141c0 0-2.455.47-4.878-.141z"></path><path fill="#f4a9a6" d="M220.409 253.977c-3.239 0-5.864 1.289-5.864 2.878 0 1.589 2.625 2.877 5.864 2.877 3.238 0 5.863-1.288 5.863-2.877 0-1.589-2.625-2.878-5.863-2.878zm37.696 0c-3.238 0-5.863 1.289-5.863 2.878 0 1.589 2.625 2.877 5.863 2.877 3.238 0 5.863-1.288 5.863-2.877 0-1.589-2.625-2.878-5.863-2.878z"></path><path fill="url(#e)" d="M211.693 231.436c33.814-2.566 21.598 28.908 21.598 28.908 5.515-26.367-12.338-25.858-21.496-26.509l-.012-.292-.09-2.107Zm-9.077-1.736c.3-.063.587-.114.883-.172v.532a23.445 23.445 0 0 1-.883-.36Zm61.491 1.18c-29.473-1.04-19.032 29.411-19.032 29.411-3.979-23.289 8.008-26.337 18.913-25.581l.119-3.83Z"></path><path fill="#ef653f" d="M246.595 237.846c2.621-3.506 8.806-4.953 15.624-3.447 6.82 1.508 7.892-1.483 7.892-1.483-24.626-9.273-26.136 8.437-23.516 4.93zm-36.996-5.844s.839 3.064 7.754 2.087c6.914-.977 12.968.943 15.311 4.641s2.202-14.075-23.065-6.728z"></path><path fill="#0093d5" d="M191.795 223.364c-1.994-1.185-2.209-3.744-2.209-3.744h-.754v14.332c-4.003-2.516-11.518 3.986-3.503 3.986 1.389 0 4.257-1.053 4.257-2.696v-10.531s2.882.431 4.661 2.425c1.778 1.993-.916 6.412-.916 6.412 5.711-5.011.458-8.999-1.536-10.184Z"></path><path fill="#f7c090" d="M275.959 220.831c-6.662-.824-.166.656-20.724-.166-20.56-.822-34.458-5.263-37.584-4.605-3.126.658-2.409 4.278-2.409 4.278s8.165-1.976 19.35 2.63c11.185 4.606 24.202 10.141 39.734 3.55l2.949-1.412s5.346-3.453-1.316-4.275Z"></path><path fill="#ef653f" d="M199.219 222.758v19.013c0 .049 6.856-.633 6.291-22.561 0 0-4.645-.153-6.291 3.548zm74.627-13.184h-5.761v11.174h4.978c.285 20.628 6.28 21.023 6.28 21.023v-22.189c0-3.9-2.105-7.443-5.497-10.008z"></path><path fill="#ea402e" d="M277.539 214.78c-1.199.147-6.009 1.134-7.326 3.355-.714 1.205-1.306 1.939-1.508 2.613h4.358c.022 1.606.122 3.741.208 5.111 0 0 3.854-2.261 6.072-6.01.066-1.634-.329-3.508-1.09-5.022a2.196 2.196 0 0 0-.714-.047Z"></path><path fill="#ef653f" d="M274.83 207.822s5.566-3.896 3.711-10.204c0 0-3.526 4.453-15.214 1.484-11.691-2.969-16.236-5.845-29.966-5.845s-34.142 6.679-34.142 29.501l6.275 2.036s9.21-6.858 20.064-5.002c10.855 1.855 23.378 9.37 34.882 8.813 11.503-.556 21.151-7.235 21.337-23.377 0 0-2.784 3.895-6.947 2.594Z"></path><path fill="#f28c76" d="M280.23 207.981c-12.994 6.661-21.794-2.878-21.794-2.878 13.899 3.043 18.751-4.77 18.751-4.77-5.181 3.619-9.433 5.18-30.758-.74-21.325-5.921-30.537 4.633-30.537 4.633 14.089-4.222 21.161-3.399 36.457 6.634 15.296 10.032 25.742.987 25.742.987-8.552 3.618-15.625-1.069-15.625-1.069 9.457 3.865 17.764-2.797 17.764-2.797Z"></path><path fill="#0093d5" d="M290.043 233.952V219.62h-.754s-.216 2.559-2.209 3.744c-1.995 1.185-7.247 5.173-1.537 10.184 0 0-2.694-4.419-.916-6.412 1.779-1.994 4.662-2.425 4.662-2.425v10.531c0 1.643 2.868 2.696 4.256 2.696 8.015 0 .5-6.502-3.502-3.986Z"></path><path fill="#fff" fill-rule="nonzero" d="M228.961 320.062c-32.658-13.927-30.506-73.645-30.501-73.816a.373.373 0 0 0-.743-.021c-.006.173-2.177 60.394 30.953 74.522a.372.372 0 0 0 .291-.685Z"></path><path fill="#889097" d="M194.726 244.003a2.24 2.24 0 0 0 2.233 2.233h2.26v-4.465h-2.26a2.239 2.239 0 0 0-2.233 2.232Z"></path><path fill="#444b4d" d="M198.452 241.771h.767v4.465h-.767z"></path><path fill="#272f2f" d="M196.337 242.212a.267.267 0 1 0 0 .534.267.267 0 0 0 0-.534Z"></path><path fill="#5d6568" d="M197.706 246.236h.766v.875h-.766z"></path><path fill="#fff" fill-rule="nonzero" d="M280.463 245.864a.371.371 0 0 0-.36.382c.004.171 2.157 59.889-30.501 73.816a.371.371 0 1 0 .291.685c33.13-14.128 30.958-74.349 30.953-74.522a.373.373 0 0 0-.383-.361Z"></path><path fill="#889097" d="M281.604 241.771h-2.261v4.465h2.261a2.239 2.239 0 0 0 2.232-2.233 2.238 2.238 0 0 0-2.232-2.232Z"></path><path fill="#272f2f" d="M279.343 241.771h.767v4.465h-.767zM282.226 242.212a.267.267 0 1 0 0 .534.267.267 0 0 0 0-.534Z"></path><path fill="#5d6568" d="M280.09 246.236h.767v.875h-.767z"></path><path fill="#737a7f" d="M196.49 245.297a1.77 1.77 0 0 1-1.75-1.542 2.241 2.241 0 0 0 2.218 2.481h1.494v-.939h-1.962Z"></path><path fill="#272f2f" d="m198.452 246.161.008.075h.759v-.939h-.767v.864Z"></path><path fill="#444b4d" d="M197.706 246.236h.766v.241h-.766z"></path><path fill="#737a7f" d="M282.073 245.297H280.11v.939h1.494a2.24 2.24 0 0 0 2.218-2.481 1.769 1.769 0 0 1-1.749 1.542Z"></path><path fill="#272f2f" d="M279.343 246.236h.76l.007-.075v-.864h-.767v.939Z"></path><path fill="#444b4d" d="M280.09 246.236h.767v.241h-.767z"></path><path fill="#f7c090" fill-rule="nonzero" d="M253.701 264.752c-15.52 8.054-28.852.042-28.889.021a.743.743 0 1 0-.752 1.281c.039.024 14.072 8.455 30.322.021a.745.745 0 0 0-.681-1.323Z"></path><path fill="#f7c090" d="M234.915 270.498c4.324 2.323 8.657 0 8.657 0-4.377 1.172-8.657 0-8.657 0zm-11.84-3.721c-.686-2.563 1.747-3.026 1.747-3.026-3.331-.164-1.747 3.026-1.747 3.026zm30.504-2.985s2.433.463 1.748 3.026c0 0 1.583-3.19-1.748-3.026z"></path></g><defs><linearGradient id="b" x2="1" gradientTransform="matrix(110.003 0 0 103.003 197.227 219.4)" gradientUnits="userSpaceOnUse"><stop offset="0" stop-color="#00b0ea"></stop><stop offset=".9" stop-color="#693b97"></stop><stop offset="1" stop-color="#6d3795"></stop></linearGradient><linearGradient id="c" x2="1" gradientTransform="matrix(15.6376 0 0 36.083 229.547 272.839)" gradientUnits="userSpaceOnUse"><stop offset="0" stop-color="#f8eabc"></stop><stop offset="1" stop-color="#f7d192"></stop></linearGradient><linearGradient id="d" x2="1" gradientTransform="matrix(91.5888 0 0 80.5459 172.346 213.506)" gradientUnits="userSpaceOnUse"><stop offset="0" stop-color="#f6eec3"></stop><stop offset="1" stop-color="#f9daa5"></stop></linearGradient><linearGradient id="e" x2="1" gradientTransform="matrix(50.5417 0 0 35.4746 229.918 226.869)" gradientUnits="userSpaceOnUse"><stop offset="0" stop-color="#f9daa5"></stop><stop offset="1" stop-color="#f8c091"></stop></linearGradient></defs></svg>