<svg xmlns="http://www.w3.org/2000/svg" version="1" viewBox="0 0 128 128" id="tense"><path fill="#48a37e" d="M64 82.953c-18.045 0-34.306 7.598-45.791 19.756C29.694 114.867 45.955 122.466 64 122.466c18.045 0 34.306-7.6 45.791-19.757C98.306 90.551 82.045 82.953 64 82.953Z"></path><path fill="#ffa53d" d="m56.63 121.632 2.875-22.166h7.37L70 121.632M55.105 92.81l4.525 6.656h6.89l3.841-6.046-3.649-1.634-.54.132a13.519 13.519 0 0 1-6.42 0l-.54-.132-4.107 1.023z"></path><path style="line-height:normal;text-indent:0;text-align:start;text-decoration-line:none;text-decoration-style:solid;text-decoration-color:#000;text-transform:none;block-progression:tb;isolation:auto;mix-blend-mode:normal" fill="#234957" d="m58.756 98.465-3.117 23.033 1.982.268 2.883-21.301h5.502l3.004 21.306 1.98-.279-3.246-23.027h-8.988z" color="#000" font-family="sans-serif" font-weight="400" overflow="visible"></path><path style="line-height:normal;text-indent:0;text-align:start;text-decoration-line:none;text-decoration-style:solid;text-decoration-color:#000;text-transform:none;block-progression:tb;isolation:auto;mix-blend-mode:normal" fill="#234957" d="m56.172 92.297-1.678 1.088 4.592 7.08h7.955l4.799-6.842-1.637-1.148L66 98.465h-5.826l-4.002-6.168z" color="#000" font-family="sans-serif" font-weight="400" overflow="visible"></path><path fill="#388e69" d="M101.95 109.716a63.474 63.474 0 0 0 7.841-7.007C98.306 90.551 82.045 82.953 64 82.953c-1.355 0-2.696.056-4.03.14 17.665 2.186 32.87 12.272 41.98 26.623z"></path><path fill="#79bfa0" d="M26.05 109.716a63.473 63.473 0 0 1-7.841-7.007C29.694 90.551 45.955 82.953 64 82.953c1.355 0 2.696.056 4.03.14-17.665 2.186-32.87 12.272-41.98 26.623z"></path><path style="line-height:normal;text-indent:0;text-align:start;text-decoration-line:none;text-decoration-style:solid;text-decoration-color:#000;text-transform:none;block-progression:tb;isolation:auto;mix-blend-mode:normal" fill="#234957" d="M64 80.953c-18.326 0-34.851 7.72-46.518 20.068l-.648.688.648.687C29.15 114.746 45.674 122.465 64 122.465s34.851-7.72 46.518-20.069l.648-.687-.648-.688C98.85 88.672 82.326 80.953 64 80.953Zm0 2c17.407 0 33.087 7.208 44.348 18.756C97.087 113.256 81.407 120.465 64 120.465s-33.087-7.209-44.348-18.756C30.913 90.161 46.593 82.953 64 82.953Z" color="#000" font-family="sans-serif" font-weight="400" overflow="visible"></path><path fill="#f4ceae" d="m73.079 71.523-.016 10.86c0 5.522-4.477 10-10 10-5.522 0-10-4.478-10-10l.016-10.86"></path><path fill="#f4ceae" d="m73.079 71.523-.016 10.86c0 5.522-4.477 10-10 10-5.522 0-10-4.478-10-10l.016-10.86"></path><path fill="#eeb490" d="M68.014 71 68 81.12c0 5.038-3.728 9.324-8.573 10.018 1.372.707 2.924 1.179 4.573 1.179 5.523 0 10-4.706 10-10.229L74.016 71h-6.002Z"></path><path fill="none" stroke="#234957" stroke-miterlimit="10" stroke-width="2" d="m73.079 76.523-.016 5.86c0 5.522-4.477 10-10 10-5.522 0-10-4.478-10-10l.016-5.86"></path><path fill="#f9f9f9" d="M63.063 92.382c5.523 0 10-4.477 10-10l.016-2.859-.015-.516 6.596 5.024-3.805 13.185-4.833-4.167-4.209-1.395M63.063 92.382c-5.522 0-10-4.477-10-10l.016-2.859-.016-.516-6.596 5.024 3.805 13.185 4.833-4.167 4.208-1.395"></path><path style="line-height:normal;text-indent:0;text-align:start;text-decoration-line:none;text-decoration-style:solid;text-decoration-color:#000;text-transform:none;block-progression:tb;isolation:auto;mix-blend-mode:normal" fill="#234957" d="M73.014 78.008a1 1 0 0 0-.95 1.03l.014.497-.016 2.842a1 1 0 0 0 0 .006 8.985 8.985 0 0 1-5.486 8.293 1 1 0 0 0-.049.012 9 9 0 0 1-3.465.695 1 1 0 1 0 0 2c1.273 0 2.453-.33 3.59-.729l3.868 1.282 4.681 4.037a1 1 0 0 0 1.615-.48l3.805-13.184a1 1 0 0 0-.355-1.073l-6.596-5.025a1 1 0 0 0-.656-.203zm1.056 3.023 4.44 3.381-3.184 11.03-3.652-3.151a1 1 0 0 0-.338-.191l-2.266-.752c2.937-1.978 4.993-5.168 4.993-8.965l.007-1.352z" color="#000" font-family="sans-serif" font-weight="400" overflow="visible"></path><path style="line-height:normal;text-indent:0;text-align:start;text-decoration-line:none;text-decoration-style:solid;text-decoration-color:#000;text-transform:none;block-progression:tb;isolation:auto;mix-blend-mode:normal" fill="#234957" d="M53.104 78.008a1 1 0 0 0-.647.203l-6.596 5.025a1 1 0 0 0-.355 1.073l3.805 13.183a1 1 0 0 0 1.613.48l4.683-4.036 3.868-1.282c1.137.4 2.315.729 3.587.729a1 1 0 1 0 0-2 8.996 8.996 0 0 1-3.488-.701 1 1 0 0 0-.02-.004l-.001-.002a8.986 8.986 0 0 1-5.49-8.293l.015-2.854a1 1 0 0 0 0-.037l-.016-.515a1 1 0 0 0-.958-.97zM52.07 81.02l-.007 1.356a1 1 0 0 0 0 .006c0 3.797 2.057 6.987 4.994 8.965l-2.266.752a1 1 0 0 0-.338.191l-3.652 3.15-3.184-11.029 4.453-3.39z" color="#000" font-family="sans-serif" font-weight="400" overflow="visible"></path><path fill="#f4ceae" d="M40.063 48.971a4 4 0 0 1-8 0v-7a4 4 0 1 1 8 0v7z"></path><path fill="#eeb490" d="M94.063 48.848a4 4 0 1 1-8 0v-7a4 4 0 0 1 8 0v7z"></path><path style="line-height:normal;text-indent:0;text-align:start;text-decoration-line:none;text-decoration-style:solid;text-decoration-color:#000;text-transform:none;block-progression:tb;isolation:auto;mix-blend-mode:normal" fill="#234957" d="M36.063 36.97c-2.75 0-5 2.251-5 5v7c0 2.75 2.25 5 5 5s5-2.25 5-5v-7c0-2.749-2.25-5-5-5zm0 2c1.668 0 3 1.332 3 3v7c0 1.67-1.332 3-3 3-1.67 0-3-1.33-3-3v-7c0-1.668 1.33-3 3-3zm54-2.122c-2.75 0-5 2.25-5 5v7c0 2.75 2.25 5 5 5s5-2.25 5-5v-7c0-2.75-2.25-5-5-5zm0 2c1.668 0 3 1.331 3 3v7c0 1.668-1.332 3-3 3-1.67 0-3-1.332-3-3v-7c0-1.669 1.33-3 3-3z" color="#000" font-family="sans-serif" font-weight="400" overflow="visible"></path><path fill="#608287" d="M54 12h-7c-3.843 0-6.96-2.865-6.997-6.699C36.057 5.793 33 9.386 33 13.466v11C33 28.884 36.582 32 41 32h48c1.657 0 3-.904 3-2.555V16.42C92 14.219 90.21 12 88 12H54z"></path><path fill="#90aaaf" d="M49 24.466v-11c0-.34.029-.466.07-1.466H47c-1.01 0-1.967.014-2.834-.371-.106.519-.166 1.287-.166 1.837v11C44 28.884 47.582 32 52 32h5c-4.418 0-8-3.116-8-7.534z"></path><path fill="#4e676d" d="M37 12h10c-3.843 0-6.96-2.865-6.997-6.699-3.25.405-5.892 2.64-6.725 5.736 1.079.68 2.352.963 3.722.963zm51 0h-9c2.21 0 4 2.22 4 4.42v13.025C83 31.095 81.657 32 80 32h9c1.657 0 3-.904 3-2.555V16.42C92 14.219 90.21 12 88 12z"></path><path fill="#90aaaf" d="M38 24.466v-11c0-2.234.92-4.248 2.397-5.698a6.977 6.977 0 0 1-.394-2.234C36.057 6.026 33 9.386 33 13.466v11C33 28.884 36.582 32 41 32h5c-4.418 0-8-3.116-8-7.534z"></path><path fill="#f4ceae" d="M89.231 32.134v20.69c0 13.807-11.193 25-25 25h-2c-13.807 0-25-11.193-25-25v-20.69"></path><path fill="#eeb490" d="M83 32v21.156c0 12.963-9.867 23.543-22.5 24.797.822.082 1.656.047 2.5.047h2c13.807 0 25-11.037 25-24.844V32h-7Z"></path><path fill="#fff" d="M44.063 32.466v20.69c0 12.963 10.117 23.775 22.75 25.03-.822.082-1.406.28-2.25.28h-2c-13.807 0-25.5-11.503-25.5-25.31v-20.69h7z" opacity=".16"></path><path fill="#eeb490" d="M38 32h52v6H38z"></path><path style="line-height:normal;text-indent:0;text-align:start;text-decoration-line:none;text-decoration-style:solid;text-decoration-color:#000;text-transform:none;block-progression:tb;isolation:auto;mix-blend-mode:normal" fill="#234957" d="M37.049 31.451a1 1 0 0 0-.986 1.014v20.691c0 14.348 11.652 26 26 26h2c14.347 0 26-11.652 26-26V32.465a1 1 0 1 0-2 0v20.691c0 13.267-10.734 24-24 24h-2c-13.267 0-24-10.733-24-24V32.465a1 1 0 0 0-1.014-1.014z" color="#000" font-family="sans-serif" font-weight="400" overflow="visible"></path><path style="line-height:normal;text-indent:0;text-align:start;text-decoration-line:none;text-decoration-style:solid;text-decoration-color:#000;text-transform:none;block-progression:tb;isolation:auto;mix-blend-mode:normal" fill="#234957" d="M39.965 4.736a1 1 0 0 0-.084.008C35.404 5.302 32 9.321 32 13.9v11c0 4.96 4.112 8.534 9 8.534h48.074a4.003 4.003 0 0 0 3.989-3.989V18.434c0-3.855-3.146-7-7-7H47c-3.346 0-5.964-2.41-5.996-5.707a1 1 0 0 0-1.04-.99Zm-.688 2.276c.676 3.698 3.834 6.422 7.723 6.422h39.063c2.773 0 5 2.226 5 5v11.011c0 1.111-.878 1.989-1.989 1.989H41c-3.948 0-7-2.656-7-6.534v-11c0-3.263 2.292-6.075 5.277-6.888z" color="#000" font-family="sans-serif" font-weight="400" overflow="visible"></path><path stroke="#234957" stroke-linecap="round" stroke-linejoin="round" stroke-miterlimit="10" stroke-width="2" d="M63 55h1"></path><path fill="#234957" d="M56.682 70.818c-1.358 0-2.348-1.333-1.91-2.617a8.114 8.114 0 0 1 7.68-5.494h2.413a8.114 8.114 0 0 1 7.68 5.494c.437 1.284-.553 2.617-1.91 2.617H56.682z"></path><circle cx="51.343" cy="43.959" r="2.5" fill="#234957"></circle><circle cx="74.334" cy="43.977" r="2.5" fill="#234957"></circle><path fill="#24addd" d="M41.125 40.34a3.125 3.125 0 1 1-6.25 0c0-1.725 3.125-6.874 3.125-6.874s3.125 5.149 3.125 6.875z"></path></svg>