<svg xmlns="http://www.w3.org/2000/svg" version="1" viewBox="0 0 128 128" id="smile"><path fill="#ea5f6e" d="M64 82.953c-18.045 0-34.306 7.598-45.791 19.756C29.694 114.867 45.955 122.466 64 122.466s34.306-7.6 45.791-19.757C98.306 90.551 82.045 82.953 64 82.953z"></path><path fill="#d34a5e" d="M101.95 109.716a63.473 63.473 0 0 0 7.841-7.007C98.306 90.551 82.045 82.953 64 82.953c-1.355 0-2.696.056-4.03.14 17.665 2.186 32.87 12.272 41.98 26.623z"></path><path fill="#ff667c" d="M26.05 109.716a63.473 63.473 0 0 1-7.841-7.007C29.694 90.551 45.955 82.953 64 82.953c1.355 0 2.696.056 4.03.14-17.665 2.186-32.87 12.272-41.98 26.623z"></path><path fill="none" stroke="#234957" stroke-miterlimit="10" stroke-width="2" d="M64 81.953c-18.045 0-34.306 7.598-45.791 19.756C29.694 113.867 45.955 121.466 64 121.466s34.306-7.6 45.791-19.757C98.306 89.551 82.045 81.953 64 81.953z"></path><path fill="#f4ceae" d="m73.079 71.523-.016 10.86c0 5.522-4.477 10-10 10-5.522 0-10-4.478-10-10l.016-10.86"></path><path fill="#f4ceae" d="m73.079 71.523-.016 10.86c0 5.522-4.477 10-10 10-5.522 0-10-4.478-10-10l.016-10.86"></path><path fill="#eeb490" d="M68.014 71 68 81.12c0 5.038-3.728 9.324-8.573 10.018 1.372.707 2.924 1.179 4.573 1.179 5.523 0 10-4.706 10-10.229L74.016 71h-6.002z"></path><path fill="none" stroke="#234957" stroke-miterlimit="10" stroke-width="2" d="m73.079 76.523-.016 5.86c0 5.522-4.477 10-10 10-5.522 0-10-4.478-10-10l.016-5.86"></path><path fill="#f4ceae" d="M40.063 48.971a4 4 0 0 1-8 0v-7a4 4 0 1 1 8 0v7z"></path><path fill="#eeb490" d="M94.063 48.848a4 4 0 1 1-8 0v-7a4 4 0 0 1 8 0v7z"></path><path fill="none" stroke="#234957" stroke-miterlimit="10" stroke-width="2" d="M40.063 48.971a4 4 0 0 1-8 0v-7a4 4 0 1 1 8 0v7zm54-.123a4 4 0 1 1-8 0v-7a4 4 0 0 1 8 0v7z"></path><path fill="#608287" d="M54 12h-7c-3.843 0-6.96-2.865-6.997-6.699C36.057 5.793 33 9.386 33 13.466v11C33 28.884 36.582 32 41 32h48c1.657 0 3-.904 3-2.555V16.42C92 14.219 90.21 12 88 12H54z"></path><path fill="#90aaaf" d="M49 24.466v-11c0-.34.029-.466.07-1.466H47c-1.01 0-1.967.014-2.834-.371-.106.519-.166 1.287-.166 1.837v11C44 28.884 47.582 32 52 32h5c-4.418 0-8-3.116-8-7.534z"></path><path fill="#4e676d" d="M37 12h10c-3.843 0-6.96-2.865-6.997-6.699-3.25.405-5.892 2.64-6.725 5.736 1.079.68 2.352.963 3.722.963zm51 0h-9c2.21 0 4 2.22 4 4.42v13.025C83 31.095 81.657 32 80 32h9c1.657 0 3-.904 3-2.555V16.42C92 14.219 90.21 12 88 12z"></path><path fill="#90aaaf" d="M38 24.466v-11c0-2.234.92-4.248 2.397-5.698a6.977 6.977 0 0 1-.394-2.234C36.057 6.026 33 9.386 33 13.466v11C33 28.884 36.582 32 41 32h5c-4.418 0-8-3.116-8-7.534z"></path><path fill="#f4ceae" stroke="#000" stroke-miterlimit="10" stroke-width="2" d="M89.063 32.466v20.69c0 13.807-11.192 25-25 25h-2c-13.807 0-25-11.193-25-25v-20.69"></path><path fill="#f4ceae" d="M89.231 32.134v20.69c0 13.807-11.193 25-25 25h-2c-13.807 0-25-11.193-25-25v-20.69"></path><path fill="#eeb490" d="M83 32v21.156c0 12.963-9.867 23.543-22.5 24.797.822.082 1.656.047 2.5.047h2c13.807 0 25-11.037 25-24.844V32h-7z"></path><path fill="#fff" d="M44.063 32.466v20.69c0 12.963 10.117 23.775 22.75 25.03-.822.082-1.406.28-2.25.28h-2c-13.807 0-25.5-11.503-25.5-25.31v-20.69h7z" opacity=".16"></path><path fill="#eeb490" d="M38 32h52v6H38z"></path><circle cx="51.568" cy="43.959" r="2.5" fill="#234957"></circle><path fill="none" stroke="#234957" stroke-linecap="round" stroke-linejoin="round" stroke-miterlimit="10" stroke-width="2" d="M89.063 32.466v20.69c0 13.807-11.192 25-25 25h-2c-13.807 0-25-11.193-25-25v-20.69"></path><path fill="none" stroke="#234957" stroke-linecap="round" stroke-linejoin="round" stroke-miterlimit="10" stroke-width="2" d="M37.063 32.434h52.01a2.99 2.99 0 0 0 2.99-2.99v-11.01c0-3.313-2.686-6.054-6-6.051l-35.136.034L47 12.4c-3.843 0-6.96-3.265-6.997-7.099C36.057 5.793 33 9.386 33 13.466v11c0 4.418 3.582 8.034 8 8.034h14"></path><circle cx="74.559" cy="43.977" r="2.5" fill="#234957"></circle><path stroke="#234957" stroke-linecap="round" stroke-linejoin="round" stroke-miterlimit="10" stroke-width="2" d="M63 55h1"></path><path fill="#234957" d="M72.976 62.707a8.11 8.11 0 0 1-8.11 8.111H62.45a8.11 8.11 0 0 1-8.11-8.11"></path><path fill="#ea5f6e" d="M61.622 66.17c-1.497.645-2.406 2.196-2.4 3.826 0 .077-.004.083 0 .154 1.06.509 2.275.668 3.53.668h2.413c1.022 0 2.153-.329 2.93-.677.043-3.137-3.17-5.393-6.473-3.97z"></path></svg>