<svg xmlns="http://www.w3.org/2000/svg" enable-background="new 0 0 512 512" viewBox="0 0 512 512" id="target"><circle cx="256" cy="256.1" r="251" fill="#e67368"></circle><path fill="#db3328" d="M433.5,78.6l-355,355c98,98,256.9,98,355,0C531.5,335.5,531.5,176.6,433.5,78.6z"></path><polygon fill="#db3328" points="78.5 78.6 78.5 78.6 78.5 78.6"></polygon><path fill="#b5100b" d="M248.4,263.9c1.8,1.9,4.4,3.1,7.3,3.1h251.1c0.3-7,0.3-14,0.1-20H265.3L248.4,263.9z"></path><circle cx="256" cy="256.1" r="211" fill="#fffcfa"></circle><path fill="#ebeadf" d="M106.8,405.3c38.2,38.2,90.9,61.8,149.2,61.8c116.5,0,211-94.5,211-211
			c0-58.3-23.6-111-61.8-149.2L106.8,405.3z"></path><path fill="#c4c1ab" d="M248.4,263.9c1.8,1.9,4.4,3.1,7.3,3.1h211c0.2-4,0.3-7.1,0.3-10.7c0-3.1-0.1-6.3-0.2-9.3
			H265.3L248.4,263.9z"></path><circle cx="256" cy="256.1" r="168" fill="#e67368"></circle><path fill="#db3328" d="M137.2,374.9c30.4,30.4,72.4,49.2,118.8,49.2c92.8,0,168-75.2,168-168
			c0-46.4-18.8-88.4-49.2-118.8L137.2,374.9z"></path><path fill="#b5100b" d="M248.4,263.9c1.8,1.9,4.4,3.1,7.3,3.1h167.9c0.2-4,0.3-7.1,0.3-10.7c0-3.1-0.1-6.3-0.3-9.3
			H265.3L248.4,263.9z"></path><circle cx="256" cy="256.1" r="128" fill="#fffcfa"></circle><path fill="#ebeadf" d="M165.5,346.6c23.2,23.2,55.2,37.5,90.5,37.5c70.7,0,128-57.3,128-128
			c0-35.3-14.3-67.3-37.5-90.5L165.5,346.6z"></path><path fill="#c4c1ab" d="M248.4,263.9c1.8,1.9,4.4,3.1,7.3,3.1h127.8c0.3-4,0.4-7.1,0.4-10.7c0-3.1-0.1-6.3-0.3-9.3
			H265.3L248.4,263.9z"></path><circle cx="256" cy="256.1" r="74" fill="#e67368"></circle><path fill="#db3328" d="M203.7,308.4c13.4,13.4,31.9,21.7,52.3,21.7c40.9,0,74-33.1,74-74c0-20.4-8.3-38.9-21.7-52.3
			L203.7,308.4z"></path><path fill="#b5100b" d="M248.4,263.9c1.8,1.9,4.4,3.1,7.3,3.1h73.5c0.5-4,0.8-7.1,0.8-10.7c0-3.1-0.2-6.3-0.6-9.3
			h-64.1L248.4,263.9z"></path><polygon fill="#fffa5a" points="256 216.4 268.9 242.5 297.7 246.7 276.8 267 281.8 295.7 256 282.2 230.2 295.7 235.2 267 214.3 246.7 243.1 242.5"></polygon><polygon fill="#f8d707" points="230.2 295.7 256 282.2 281.8 295.7 276.8 267 297.7 246.7 269.5 242.6 233.1 278.9"></polygon><path fill="#eda900" d="M255.7,247c-5.5,0-10,4.5-10,10c0,5.5,4.5,10,10,10h21.4l20.5-20H255.7z"></path><polygon fill="#68a1d6" points="402.3 5 341.3 66 333.9 134.6 326.6 80.6 297.6 109.6 311.7 200.1 402.3 214.3 458.4 158.1 420.4 138.1 475.4 141.1 506.9 109.6 416.4 95.5"></polygon><polygon fill="#3179af" points="416.4 95.5 412.4 69.7 307.7 174.4 311.7 200.2 337.8 204.2 442.5 99.6"></polygon><path fill="#1f3f77" d="M442.9,55L248.9,249c-3.9,3.9-3.9,10.2,0,14.1l0,0c3.9,3.9,10.2,3.9,14.1,0L457,69.2
			c3.9-3.9,3.9-10.2,0-14.1v0C453.1,51.1,446.8,51.1,442.9,55z"></path></svg>