<svg xmlns="http://www.w3.org/2000/svg" version="1" viewBox="0 0 128 128" id="sad"><path fill="#ea5f6e" d="M64 82.953c-18.045 0-34.306 7.598-45.791 19.756C29.694 114.867 45.955 122.466 64 122.466c18.045 0 34.306-7.6 45.791-19.757C98.306 90.551 82.045 82.953 64 82.953Z"></path><path fill="#1b9ed6" d="m57.405 121.82 2.875-22.167h7.37l3.125 22.167"></path><path fill="#ff667c" d="M26.05 109.716a63.473 63.473 0 0 1-7.841-7.007C29.694 90.551 45.955 82.953 64 82.953c1.355 0 2.696.056 4.03.14-17.665 2.186-32.87 12.272-41.98 26.623z"></path><path fill="#d34a5e" d="M101.95 109.716a63.474 63.474 0 0 0 7.841-7.007C98.306 90.551 82.045 82.953 64 82.953c-1.355 0-2.696.056-4.03.14 17.665 2.186 32.87 12.272 41.98 26.623z"></path><path fill="none" stroke="#234957" stroke-miterlimit="10" stroke-width="2" d="M64 81.953c-18.045 0-34.306 7.598-45.791 19.756C29.694 113.867 45.955 121.466 64 121.466c18.045 0 34.306-7.6 45.791-19.757C98.306 89.551 82.045 81.953 64 81.953Z"></path><path fill="#f4ceae" d="m73.854 71.523-.015 10.86c0 5.522-4.478 10-10 10-5.523 0-10-4.478-10-10l.015-10.86"></path><path fill="#f4ceae" d="m73.854 71.523-.015 10.86c0 5.522-4.478 10-10 10-5.523 0-10-4.478-10-10l.015-10.86"></path><path fill="#eeb490" d="M68.014 71 68 81.12c0 5.038-3.728 9.324-8.573 10.018 1.372.707 2.924 1.179 4.573 1.179 5.523 0 10-4.706 10-10.229L74.016 71h-6.002Z"></path><path fill="none" stroke="#234957" stroke-miterlimit="10" stroke-width="2" d="m73.854 76.523-.015 5.86c0 5.522-4.478 10-10 10-5.523 0-10-4.478-10-10l.015-5.86"></path><path fill="#f4ceae" d="M40.839 48.971a4 4 0 0 1-8 0v-7a4 4 0 1 1 8 0v7z"></path><path fill="#eeb490" d="M94.839 48.848a4 4 0 1 1-8 0v-7a4 4 0 0 1 8 0v7z"></path><path fill="none" stroke="#234957" stroke-miterlimit="10" stroke-width="2" d="M40.839 48.971a4 4 0 0 1-8 0v-7a4 4 0 1 1 8 0v7zm54-.123a4 4 0 1 1-8 0v-7a4 4 0 0 1 8 0v7z"></path><path fill="#608287" d="M54 12h-7c-3.843 0-6.96-2.865-6.997-6.699C36.057 5.793 33 9.386 33 13.466v11C33 28.884 36.582 32 41 32h49c1.657 0 3-.904 3-2.555V16.42C93 14.219 91.21 12 89 12H54z"></path><path fill="#90aaaf" d="M49 24.466v-11c0-.34.029-.466.07-1.466H47c-1.01 0-1.967.014-2.834-.371-.106.519-.166 1.287-.166 1.837v11C44 28.884 47.582 32 52 32h5c-4.418 0-8-3.116-8-7.534z"></path><path fill="#4e676d" d="M37 12h10c-3.843 0-6.96-2.865-6.997-6.699-3.25.405-5.892 2.64-6.725 5.736 1.079.68 2.352.963 3.722.963zm52 0H79c2.21 0 4 2.22 4 4.42v13.025C83 31.095 81.657 32 80 32h10c1.657 0 3-.904 3-2.555V16.42C93 14.219 91.21 12 89 12z"></path><path fill="#90aaaf" d="M38 24.466v-11c0-2.234.92-4.248 2.397-5.698a6.977 6.977 0 0 1-.394-2.234C36.057 6.026 33 9.386 33 13.466v11C33 28.884 36.582 32 41 32h5c-4.418 0-8-3.116-8-7.534z"></path><path fill="#f4ceae" stroke="#000" stroke-miterlimit="10" stroke-width="2" d="M89.839 32.466v20.69c0 13.807-11.193 25-25 25h-2c-13.808 0-25-11.193-25-25v-20.69"></path><path fill="#f4ceae" d="M89.839 32.153v20.69c0 13.807-11.193 25-25 25h-2c-13.808 0-25-11.193-25-25v-20.69"></path><path fill="#eeb490" d="M83 32v21.156c0 12.963-9.867 23.543-22.5 24.797.822.082 1.656.047 2.5.047h2c13.807 0 25-11.037 25-24.844V32h-7Z"></path><path fill="#fff" d="M44.839 32.466v20.69c0 12.963 10.116 23.775 22.75 25.03-.823.082-1.407.28-2.25.28h-2c-13.808 0-25.5-11.503-25.5-25.31v-20.69h7z" opacity=".16"></path><path fill="#eeb490" d="M38 32h52v6H38z"></path><circle cx="52.343" cy="43.959" r="2.5" fill="#234957"></circle><path fill="none" stroke="#234957" stroke-linecap="round" stroke-linejoin="round" stroke-miterlimit="10" stroke-width="2" d="M89.839 32.466v20.69c0 13.807-11.193 25-25 25h-2c-13.808 0-25-11.193-25-25v-20.69M63 12.434H47c-3.843 0-6.96-2.864-6.997-6.698C36.057 6.227 33 9.82 33 13.9v11c0 4.418 3.582 7.534 8 7.534h48.849a2.99 2.99 0 0 0 2.99-2.99v-11.01a6 6 0 0 0-6-6h-19z"></path><circle cx="75.334" cy="43.977" r="2.5" fill="#234957"></circle><path fill="none" stroke="#234957" stroke-linecap="round" stroke-linejoin="round" stroke-miterlimit="10" stroke-width="2" d="M54 67.466a12.974 12.974 0 0 1 10.031-4.731c4.021 0 7.616 1.826 10 4.693"></path><path stroke="#234957" stroke-linecap="round" stroke-linejoin="round" stroke-miterlimit="10" stroke-width="2" d="M63 55h1"></path><path fill="#1b9ed6" d="m55.88 92.997 4.525 6.656h6.89l3.841-6.046-3.648-1.634-.54.132a13.519 13.519 0 0 1-6.42 0l-.54-.132-4.108 1.024z"></path><path fill="none" stroke="#234957" stroke-miterlimit="10" stroke-width="2" d="m57.405 121.82 3-22.167h7.245l3.125 22.167"></path><path fill="none" stroke="#234957" stroke-miterlimit="10" stroke-width="2" d="m56.108 93.028 4.297 6.625h6.891l4.501-6.417"></path><path fill="#f9f9f9" d="M63.839 92.382c-5.523 0-10-4.477-10-10l.015-2.859-.016-.516-6.596 5.024 3.805 13.185 4.833-4.167 4.209-1.395"></path><path fill="none" stroke="#234957" stroke-linecap="round" stroke-linejoin="round" stroke-miterlimit="10" stroke-width="2" d="M63.839 92.382h0c-5.523 0-10-4.477-10-10l.015-2.859-.016-.516-6.596 5.024 3.805 13.185 4.833-4.167 4.209-1.395"></path><path fill="#f9f9f9" d="M63.839 92.382c5.522 0 10-4.477 10-10l.015-2.859-.015-.516 6.596 5.024-3.805 13.185-4.833-4.167-4.208-1.395"></path><path fill="none" stroke="#234957" stroke-linecap="round" stroke-linejoin="round" stroke-miterlimit="10" stroke-width="2" d="M63.839 92.382h0c5.522 0 10-4.477 10-10l.015-2.859-.015-.516 6.596 5.024-3.805 13.185-4.833-4.167-4.208-1.395"></path></svg>