<svg xmlns="http://www.w3.org/2000/svg" viewBox="0 0 512 512" id="shopping"><circle cx="202.45" cy="470" r="34.5" fill="#8b8893"></circle><path fill="#787681" d="M202.45 435.5a34.36 34.36 0 0 0-15 3.424 34.512 34.512 0 0 1 0 62.152 34.503 34.503 0 1 0 15-65.576Z"></path><circle cx="367.45" cy="470" r="34.5" fill="#8b8893"></circle><path fill="#787681" d="M367.45 435.5a34.36 34.36 0 0 0-15 3.424 34.512 34.512 0 0 1 0 62.152 34.503 34.503 0 1 0 15-65.576Z"></path><path fill="#eb304a" d="M448.51 214.367h-165l27.683-145.798a15 15 0 0 1 14.736-12.202h80.16a15 15 0 0 1 14.737 12.202Z"></path><path fill="#e4222e" d="M420.826 68.569a15 15 0 0 0-14.737-12.202h-45a15 15 0 0 1 14.737 12.202l27.683 145.798h45Z"></path><path fill="#787681" d="M397.685 93.866a7.5 7.5 0 0 1-7.5-7.5v-47.19a24.175 24.175 0 1 0-48.351 0v47.19a7.5 7.5 0 1 1-15 0v-47.19a39.175 39.175 0 1 1 78.35 0v47.19a7.5 7.5 0 0 1-7.5 7.5Z"></path><path fill="#fed947" d="M313.51 214.367h-165l27.683-145.798a15 15 0 0 1 14.736-12.202h80.16a15 15 0 0 1 14.737 12.202Z"></path><path fill="#fed030" d="M285.826 68.569a15 15 0 0 0-14.737-12.202h-45a15 15 0 0 1 14.737 12.202l27.683 145.798h45Z"></path><path fill="#787681" d="M262.685 93.866a7.5 7.5 0 0 1-7.5-7.5v-47.19a24.175 24.175 0 1 0-48.351 0v47.19a7.5 7.5 0 1 1-15 0v-47.19a39.175 39.175 0 1 1 78.35 0v47.19a7.5 7.5 0 0 1-7.5 7.5Z"></path><path fill="#227fc0" d="M314.529 360.531h94.521a30 30 0 0 0 27.924-19.035l51.44-131a30 30 0 0 0-27.924-40.965H106.5l45 196"></path><path fill="#2370b5" d="m151.185 364.161.315 1.37 163.029-5h-45l-118.344 3.63zM460.49 169.531h-45a30 30 0 0 1 27.924 40.965l-51.44 131a30 30 0 0 1-27.924 19.035h45a30 30 0 0 0 27.925-19.035l51.44-131a30 30 0 0 0-27.925-40.965Z"></path><path fill="#aeadb3" d="M446.334 443h-272.35a44.984 44.984 0 1 1 0-89.969H413a7.5 7.5 0 0 1 0 15H173.984a29.984 29.984 0 1 0 0 59.969h272.35a7.5 7.5 0 0 1 0 15Z"></path><path fill="#8b8893" d="M106.493 177.033a7.503 7.503 0 0 1-7.305-5.836l-8.877-38.971a22.379 22.379 0 0 0-14.478-16.23L5.013 91.106a7.5 7.5 0 0 1 4.973-14.152l70.82 24.888a37.303 37.303 0 0 1 24.13 27.052l8.876 38.97a7.508 7.508 0 0 1-7.319 9.168Z"></path></svg>