<svg xmlns="http://www.w3.org/2000/svg" viewBox="0 0 64 64" id="heart-crown"><g><path fill="#c6f4c7" d="M58.5 24.06a26.5 26.5 0 0 1-53 0c0-14.64 20.42 11.17 29.2-.54 9.74-12.98 23.8-14.09 23.8.54Z"></path><path fill="#d1203d" d="M32 50 16.34 34.34C3.69 21.69 19.35 6 32 18.67 44.64 6 60.3 21.7 47.67 34.34Z"></path><path fill="#ef2a42" d="M41 21a24 24 0 0 0-1-6.81 15.12 15.12 0 0 0-8 4.48C19.35 6 3.69 21.69 16.34 34.34l9.12 9.12A24 24 0 0 0 41 21Z"></path><path fill="none" stroke="#fff" stroke-linecap="round" stroke-linejoin="round" d="M16 24.33A7 7 0 0 1 23 18m-4 12.74a7 7 0 0 1-2.06-2.25"></path><path fill="#fb0" d="m36.88 10.73-4.5-5.4a.5.5 0 0 0-.77 0l-4.49 5.39a.2.2 0 0 1-.27 0l-3.36-2.48a.2.2 0 0 0-.31.22L26 17.87a19 19 0 0 0 12 0l2.83-9.42a.2.2 0 0 0-.31-.22l-3.36 2.52a.2.2 0 0 1-.28-.02Z"></path><path fill="#ff9d00" d="M28.45 18.5a19 19 0 0 0 9.55-.63l2.83-9.42a.2.2 0 0 0-.31-.22l-3.36 2.52a.2.2 0 0 1-.27 0l-1.26-1.52a18.93 18.93 0 0 1-7.18 9.27Z"></path><path fill="#e8332e" d="m31.11 15.28-1.17-1.65a1.09 1.09 0 0 1 0-1.25l1.17-1.65a1.09 1.09 0 0 1 1.77 0l1.17 1.65a1.09 1.09 0 0 1 0 1.25l-1.17 1.65a1.09 1.09 0 0 1-1.77 0Z"></path><path fill="none" d="M0 0h64v64H0z"></path></g></svg>