<svg xmlns="http://www.w3.org/2000/svg" fill-rule="evenodd" stroke-linejoin="round" stroke-miterlimit="2" clip-rule="evenodd" viewBox="0 0 64 64" id="audiophile-girl"><g transform="translate(-62.494 6.496) scale(.40381)"><path fill="url(#a)" d="M234.19 26.593c27.34 0 49.502 22.162 49.502 49.501s-22.162 49.501-49.502 49.501c-27.339 0-49.501-22.162-49.501-49.501s22.162-49.501 49.501-49.501Z"></path><clipPath id="a"><path d="M234.19 26.593c27.34 0 49.502 22.162 49.502 49.501s-22.162 49.501-49.502 49.501c-27.339 0-49.501-22.162-49.501-49.501s22.162-49.501 49.501-49.501Z"></path></clipPath><g clip-path="url(#a)"><path fill="#835958" d="M194.128 27.949h80.124v69.085h-80.124z"></path><path fill="#f17f79" d="M208.962 125.595h50.456v-14.904c0-8.196-6.706-14.902-14.903-14.902h-20.65c-8.197 0-14.903 6.706-14.903 14.902v14.904Z"></path><path fill="#fff" fill-rule="nonzero" d="m191.427 57.24.002-.059h-1.862c-.152 2.181-4.059 64.826 53.522 77.53a.928.928 0 1 0 .402-1.813c-56.941-12.562-52.075-75.479-52.064-75.658Z"></path></g><path fill="#f16660" d="M245.937 95.857a15.56 15.56 0 0 0-1.062-.064v2.726c0 5.876-4.807 10.684-10.684 10.684h-.001c-5.876 0-10.683-4.808-10.683-10.684v-2.726a15.55 15.55 0 0 0-1.063.064v2.662c0 3.231 1.322 6.169 3.45 8.297a11.707 11.707 0 0 0 8.296 3.45h.001c3.231 0 6.168-1.321 8.297-3.45a11.713 11.713 0 0 0 3.449-8.297v-2.662Z"></path><path fill="#f7ecc3" d="M234.19 109.203h.001c5.877 0 10.684-4.808 10.684-10.684v-7.804c0-5.877-4.807-10.684-10.684-10.684h-.001c-5.876 0-10.683 4.807-10.683 10.684v7.804c0 5.876 4.807 10.684 10.683 10.684Z"></path><path fill="url(#c)" d="M234.19 109.203h.001c5.876 0 10.684-4.808 10.684-10.682v-7.808c0-5.874-4.808-10.682-10.684-10.682h-.001c-5.876 0-10.683 4.808-10.683 10.682v7.808s8.175 2.731 13.154 1.97c4.978-.761.347 11.623-10.204 5.38a10.657 10.657 0 0 0 7.733 3.332Z"></path><path fill="#fce6c2" d="M244.875 95.788v-4.16c-2.133-.531-4.45-.911-5.161-1.135-1.95-.616-10.116-2.208-12.736-.565-1.319.827-2.689 1.356-3.471 2.154v3.681l.016.031s10.528 2.894 21.352-.006Z"></path><path fill="#fbeace" d="M212.764 9.313h42.853c10.25 0 18.635 8.387 18.635 18.636v29.233c0 22.034-18.027 40.062-40.062 40.062-22.035 0-40.062-18.028-40.062-40.062V27.949c0-10.249 8.386-18.636 18.636-18.636Z"></path><path fill="url(#d)" d="M274.252 40.702v16.48c0 22.034-18.027 40.062-40.062 40.062-22.035 0-40.15-18.028-40.062-40.062l.078-19.489C241.615 25.874 228.2 65.536 228.2 65.536c6.348 4.955 11.855-.116 11.855-.116-9.388-44.722 34.197-24.718 34.197-24.718Z"></path><path fill="#f4a9a6" d="M186.869 27.949h7.259v29.233h-7.259z"></path><path fill="#ee6f30" d="M186.869 27.949v29.233c-2.835 0-5.154-2.32-5.154-5.155V33.104c0-2.835 2.319-5.155 5.154-5.155Z"></path><path fill="#f4a9a6" d="M210.472.723h47.437c.177 0 .354.003.531.006l.06.002c.169.004.339.01.508.018l.068.003c.166.008.332.018.497.03l.081.006c.161.011.321.024.48.04l.1.009c.164.016.326.034.488.053l.035.004c.161.02.323.041.483.063l.064.01c.168.024.335.05.502.078l.045.008c.161.027.323.056.484.086l.085.017c.155.03.308.061.461.094l.09.02c.157.034.314.069.469.107l.063.016c.151.036.301.074.45.113l.099.027c.138.037.277.076.414.116l.077.022c.148.043.294.088.44.134l.095.029c.144.046.288.094.431.143l.1.033c.141.049.279.098.419.149l.109.041c.14.052.278.105.416.158l.082.033c.136.054.272.109.406.166l.041.017h.001l.04.018c.131.055.262.112.392.17l.09.04c.132.059.264.12.395.182l.115.056c.129.061.258.124.385.188l.101.051c.135.069.268.137.401.208l.068.036.418.229.044.026c.129.073.258.147.386.222l.07.041c.123.074.246.149.368.225l.103.063c.12.076.239.151.358.229l.101.066c.121.08.239.159.357.24l.096.066c.117.081.235.163.351.247l.1.072.312.231.116.088c.095.073.191.146.286.221l.116.091c.109.087.218.175.325.264l.076.063c.115.096.23.192.344.29l.066.058c.112.097.222.194.331.293l.083.075c.108.098.215.199.322.299l.071.067c.095.09.19.182.282.273l.102.102c.096.094.189.189.283.286l.064.066.017.017h-.001a23.757 23.757 0 0 1 5.113 8.079l.034-.025a24.691 24.691 0 0 1 1.281 5.293l.002.009v.004l.002.011c.022.182.044.363.062.544H273.234l-.122-.342-.017-.047-.111-.292-.012-.032-.093-.231-.06-.147-.106-.249-.003-.01-.133-.3-.014-.029-.153-.327-.135-.273-.032-.066-.142-.271-.038-.073-.147-.269-.001-.005-.166-.293-.011-.019-.184-.308-.002-.003-.168-.272-.025-.041-.161-.25-.08-.12-.122-.181-.024-.035-.197-.283-.008-.01-.21-.289-.016-.021-.11-.143-.15-.195-.094-.12-.169-.209-.065-.08-.06-.072-.229-.271h-.002l-.237-.267-.06-.067-.182-.195-.04-.042-.174-.183-.083-.084-.201-.202-.256-.249-.204-.191-.069-.064-.228-.204-.038-.034-.227-.198-.096-.081-.207-.172-.278-.224-.016-.012-.268-.205-.011-.009-.188-.14-.179-.13-.128-.091-.206-.143-.162-.11-.298-.196-.259-.164-.061-.037-.199-.12-.189-.112-.152-.088-.176-.098-.201-.111-.317-.169-.035-.018-.286-.143-.044-.021-.154-.074-.265-.124-.069-.031-.123-.055-.12-.053-.211-.091-.336-.138-.047-.019-.103-.039-.272-.103-.114-.042-.256-.091-.212-.072-.019-.007-.318-.102-.029-.01-.35-.104-.008-.001-.187-.053-.235-.064-.169-.044-.225-.055-.224-.052-.02-.005-.339-.073-.021-.004-.363-.071-.074-.013-.052-.009-.369-.061-.097-.015-.285-.04-.179-.024-.348-.039-.062-.007-.011-.001-.439-.039-.072-.006-.346-.023-.178-.008-.314-.011-.081-.003-.463-.007h-42.715l-.463.007-.081.003-.314.011-.178.008-.346.023-.072.006-.44.039-.01.001-.062.007-.348.039-.18.024-.284.04-.097.015-.369.061-.053.009-.073.013-.363.071-.021.004-.34.073-.019.005-.224.052-.225.055-.169.044-.235.064-.187.053-.008.001-.35.104-.03.01-.317.102-.019.007-.212.072-.256.091-.115.042-.271.103-.104.039-.047.019-.335.138-.211.091-.121.053-.123.055-.068.031-.266.124-.153.074-.044.021-.286.143-.035.018-.318.169-.2.111-.176.098-.153.088-.188.112-.199.12-.061.037-.259.164-.299.196-.162.11-.205.143-.129.091-.178.13-.188.14-.011.009-.269.205-.015.012-.278.224-.207.172-.096.081-.228.198-.038.034-.227.204-.069.064-.205.191-.256.249-.2.202-.084.084-.174.183-.039.042-.182.195-.06.067-.237.267h-.002l-.23.271-.059.072-.065.08-.169.209-.094.12-.151.195-.109.143-.016.021-.21.289-.008.01-.198.283-.023.035-.122.181-.08.12-.161.25-.026.041-.168.272-.002.003-.183.308-.011.019-.166.293-.001.005-.147.269-.039.073-.141.271-.032.066-.135.273-.153.327-.014.029-.133.3-.003.01-.106.249-.06.147-.093.231-.012.032-.111.292-.017.047-.122.342h-8.278C188.106 10.067 198.247.723 210.472.723ZM274.252 27.949h7.259v29.233h-7.259z"></path><path fill="#ee6f30" d="M281.511 27.949v29.233c2.835 0 5.155-2.32 5.155-5.155V33.104c0-2.835-2.32-5.155-5.155-5.155zm-92.18 0v31.937h2.335V27.949h5.382v-6.001h-10.179v6.001h2.462zm87.383 0v29.233h2.335V27.949h2.462v-6.001h-7.259v6.001h2.462z"></path><path fill="#f7c090" d="M223.523 95.794s10.751 6.113 21.352-.006l.006-.004a39.739 39.739 0 0 1-10.691 1.46c-3.689 0-7.267-.508-10.666-1.453l-.001.003zm4.677-30.258s5.508 5.488 11.855-.116c0 0-5.907 2.288-11.855.116zm3.483 34.794s1.99 2.494 4.878.14c0 0-2.455.471-4.878-.14z"></path><path fill="#f4a9a6" d="M215.318 59.168c3.238 0 5.863 1.289 5.863 2.878 0 1.589-2.625 2.878-5.863 2.878-3.238 0-5.863-1.289-5.863-2.878 0-1.589 2.625-2.878 5.863-2.878zm37.696 0c3.238 0 5.863 1.289 5.863 2.878 0 1.589-2.625 2.878-5.863 2.878-3.238 0-5.863-1.289-5.863-2.878 0-1.589 2.625-2.878 5.863-2.878z"></path><path fill="url(#e)" d="M206.251 35.46c32.976-2.136 21.949 30.076 21.949 30.076 4.9-25.983-8.111-27.802-17.379-27.834l-4.57-2.242Zm52.765.612c-29.473-1.04-19.032 29.411-19.032 29.411-3.979-23.289 8.127-27.296 19.032-26.541v-2.87Z"></path><path fill="#a74b9c" d="M170.644 17.095h.754s.216 2.559 2.209 3.744c1.994 1.186 7.247 5.173 1.536 10.184 0 0 2.694-4.419.916-6.412-1.778-1.993-4.661-2.425-4.661-2.425v10.531c0 1.643-2.868 2.697-4.256 2.697-8.015 0-.501-6.503 3.502-3.987V17.095zm126.723.002h-.755s-.216 2.559-2.209 3.745c-1.993 1.185-7.247 5.172-1.535 10.183 0 0-2.695-4.418-.916-6.412 1.778-1.993 4.66-2.425 4.66-2.425V32.72c0 1.643 2.868 2.696 4.257 2.696 8.014 0 .5-6.503-3.502-3.987V17.097z"></path><path fill="#f2bfbd" fill-rule="nonzero" d="M190.305 13.774a.93.93 0 0 0 1.711.728c.012-.029 4.244-10.302 18.556-11.329a.931.931 0 1 0-.132-1.858c-15.456 1.11-20.122 12.427-20.135 12.459Z"></path><path fill="#ee6f30" d="M272.394 21.948h5.488v6.001h-5.488z"></path><path fill="#835958" d="M212.764 9.313h42.853c10.25 0 18.635 8.387 18.635 18.636v10.612s-4.074-9.956-26.214-8.382l-2.105-7.002-1.527 7.347-.326.037c-1.185.145-2.367.27-3.543.378l-2.815-9.365-2.02 9.716c-22.305 1.204-41.574-3.341-41.574-3.341 0-10.249 8.386-18.636 18.636-18.636Z"></path><path fill="#835958" d="M204.07 29.731s-7.307-2.776-7.307 13.965c0 0-.173 2.726-2.635 2.726V27.949s10.144-3.887 9.942 1.782zm60.274 1.816s7.244.848 7.307 13.965c0 0 .173 2.726 2.635 2.726V29.765s-9.831-3.513-9.942 1.782zm.035 5.868s-.838 3.064-7.752 2.087c-6.915-.976-12.969.943-15.312 4.641-2.344 3.698-2.202-14.075 23.064-6.728z"></path><path fill="#a66e6b" d="M230.408 12.173h3.998v4.125s-1.364-.144-3.555-.288l-.443-3.837Zm-5.251 0h3.782l-.992 3.678c-.641-.028-1.314-.053-2.015-.073l-.775-3.605Zm-26.126 9.875s2.25-9.875 18.625-9.875h6.409l-1.452 3.555c-9.147-.013-20.735 1.064-23.582 6.32Z"></path><path fill="#f2bfbd" fill-rule="nonzero" d="M247.37 112.251c.41-.779.82-1.169 1.641-1.169.906 0 1.641.699 1.641 1.559 0 1.559-1.641 3.118-3.282 4.676-1.641-1.558-3.282-3.117-3.282-4.676 0-.86.736-1.559 1.641-1.559.82 0 1.231.39 1.641 1.169Z"></path><path fill="#f16660" d="M231.825 109.203h4.733v.768a2.373 2.373 0 0 1-2.367 2.366 2.372 2.372 0 0 1-2.366-2.366v-.768Z"></path><path fill="#835958" d="M203.244 35.943s.839 3.064 7.754 2.087c6.914-.977 12.968.943 15.311 4.641s2.202-14.076-23.065-6.728Z"></path><path fill="#835958" fill-rule="nonzero" d="M208.496 53.457a.709.709 0 0 0 1.418 0 5.96 5.96 0 0 1 1.748-4.228l-.498-.501.501.501.034-.037a5.959 5.959 0 0 1 4.194-1.714c1.652 0 3.147.668 4.227 1.748l.501-.498-.501.501a5.96 5.96 0 0 1 1.751 4.228.709.709 0 0 0 1.418 0 7.375 7.375 0 0 0-2.166-5.23l-.002.001a7.376 7.376 0 0 0-5.228-2.168 7.374 7.374 0 0 0-5.23 2.167l.001.001-.001.001a7.376 7.376 0 0 0-2.167 5.228zm36.626.291a.709.709 0 1 0 1.417 0c0-1.651.67-3.146 1.751-4.228l.035-.037a5.956 5.956 0 0 1 4.192-1.714 5.96 5.96 0 0 1 4.228 1.748l.502-.498-.502.501.037.035a5.957 5.957 0 0 1 1.715 4.193.709.709 0 1 0 1.417 0c0-2.019-.811-3.85-2.126-5.187l-.04-.043-.002.001-.001-.001a7.375 7.375 0 0 0-5.228-2.166 7.371 7.371 0 0 0-5.185 2.126.279.279 0 0 0-.044.04 7.371 7.371 0 0 0-2.166 5.23z"></path><path fill="#f7c090" fill-rule="nonzero" d="M228.058 73.641a.708.708 0 1 0-1.417 0c0 2.039.828 3.888 2.168 5.228l-.002.002a7.379 7.379 0 0 0 5.23 2.166 7.379 7.379 0 0 0 5.23-2.166l.04-.044a7.37 7.37 0 0 0 2.126-5.186.708.708 0 1 0-1.417 0 5.952 5.952 0 0 1-1.715 4.192l-.037.035a5.957 5.957 0 0 1-4.227 1.752 5.957 5.957 0 0 1-4.227-1.752l-.502.502.499-.502a5.955 5.955 0 0 1-1.749-4.227Z"></path></g><defs><linearGradient id="a" x2="1" gradientTransform="scale(108.056 496.887) rotate(-90 .054 .186)" gradientUnits="userSpaceOnUse"><stop offset="0" stop-color="#00b0ea"></stop><stop offset=".1" stop-color="#00b1ec"></stop><stop offset=".2" stop-color="#00b6e0"></stop><stop offset=".6" stop-color="#00ad68"></stop><stop offset=".7" stop-color="#00a950"></stop><stop offset="1" stop-color="#00aa4f"></stop></linearGradient><linearGradient id="c" x2="1" gradientTransform="matrix(0 -125.728 23.4726 0 171.328 110.701)" gradientUnits="userSpaceOnUse"><stop offset="0" stop-color="#f8eabc"></stop><stop offset="1" stop-color="#fae0b8"></stop></linearGradient><linearGradient id="d" x2="1" gradientTransform="matrix(0 -404.369 71.955 0 31.961 111.433)" gradientUnits="userSpaceOnUse"><stop offset="0" stop-color="#f6eec3"></stop><stop offset="1" stop-color="#fbe5c1"></stop></linearGradient><linearGradient id="e" x2="1" gradientTransform="matrix(0 -276.283 40.54 0 94.493 73.246)" gradientUnits="userSpaceOnUse"><stop offset="0" stop-color="#fbe5c1"></stop><stop offset="1" stop-color="#f9daa5"></stop></linearGradient></defs></svg>